<?xml version="1.0" standalone="no"?>
<!DOCTYPE svg PUBLIC "-//W3C//DTD SVG 20010904//EN"
 "http://www.w3.org/TR/2001/REC-SVG-20010904/DTD/svg10.dtd">
<svg version="1.0" xmlns="http://www.w3.org/2000/svg"
 width="700.000000pt" height="700.000000pt" viewBox="0 0 700.000000 700.000000"
 preserveAspectRatio="xMidYMid meet">
<metadata>
Created by potrace 1.14, written by Peter Selinger 2001-2017
</metadata>
<g transform="translate(0.000000,700.000000) scale(0.100000,-0.100000)"
fill="#000000" stroke="none">
<path d="M3710 6020 c-30 -4 -82 -10 -114 -14 -206 -23 -508 -115 -742 -227
-140 -66 -367 -207 -464 -288 -152 -126 -273 -243 -396 -384 -79 -91 -221
-302 -283 -421 -23 -44 -45 -84 -50 -90 -5 -6 -10 -14 -10 -18 -1 -4 -11 -29
-22 -55 -12 -27 -32 -77 -46 -113 -14 -36 -29 -74 -34 -85 -17 -40 -68 -224
-88 -321 -39 -192 -46 -267 -46 -509 0 -179 10 -357 20 -375 2 -3 6 -26 10
-50 6 -38 26 -135 39 -191 51 -206 165 -480 279 -672 26 -43 47 -80 47 -82 0
-1 -59 -52 -131 -111 -73 -60 -141 -117 -153 -127 -25 -22 -36 -31 -151 -127
-50 -41 -92 -77 -95 -80 -3 -3 -41 -34 -85 -70 -44 -36 -91 -75 -105 -87 -14
-11 -113 -94 -220 -182 -107 -89 -214 -177 -236 -196 -44 -36 -56 -67 -42
-104 8 -23 252 -339 272 -354 39 -27 90 -16 141 31 25 23 125 106 208 172 10
8 27 22 36 30 10 8 107 87 216 175 109 88 264 214 345 280 81 66 186 152 234
190 48 39 99 80 113 92 l27 22 20 -23 c66 -71 280 -237 413 -319 290 -178 662
-316 958 -353 22 -2 51 -7 65 -9 106 -17 374 -23 506 -11 89 8 227 27 234 31
4 2 29 7 56 11 75 10 310 79 425 124 245 97 462 223 669 388 122 98 317 292
398 397 105 136 185 256 232 348 14 26 28 47 32 47 5 0 8 6 8 14 0 7 12 35 26
62 54 102 159 381 178 475 3 13 12 58 21 99 9 41 18 93 21 115 3 22 7 46 9 53
27 82 26 528 -1 747 -8 61 -51 251 -74 330 -12 39 -24 79 -27 90 -2 11 -9 29
-14 40 -4 11 -20 50 -33 88 -59 159 -211 434 -318 572 -183 239 -411 455 -628
599 -47 30 -90 59 -96 63 -29 22 -262 141 -340 175 -147 64 -388 136 -513 153
-18 3 -36 7 -40 9 -3 2 -35 7 -71 11 -36 4 -74 9 -85 12 -33 8 -446 11 -505 3z"/>
</g>
</svg>
