<svg xmlns="http://www.w3.org/2000/svg" xmlns:xlink="http://www.w3.org/1999/xlink" viewBox="0 0 757.22 419.26"><defs><style>.cls-1{fill:url(#linear-gradient);}.cls-15,.cls-2{fill:#b1dcec;}.cls-10,.cls-11,.cls-12,.cls-2,.cls-3,.cls-4,.cls-5,.cls-6,.cls-7,.cls-8,.cls-9{fill-rule:evenodd;}.cls-3{fill:#b8fefe;}.cls-4{fill:#86cdeb;}.cls-5{fill:silver;}.cls-6{fill:#969696;}.cls-7{fill:#278be1;}.cls-8{fill:#edc566;}.cls-9{fill:#ffeb7a;}.cls-10{fill:#ffed7c;}.cls-11{fill:#e4b549;}.cls-12{fill:#9b6f3f;stroke:#9f713f;}.cls-12,.cls-13,.cls-21,.cls-23,.cls-25,.cls-26{stroke-linecap:round;stroke-linejoin:round;}.cls-12,.cls-25,.cls-26{stroke-width:3px;}.cls-13,.cls-21,.cls-23,.cls-25{fill:none;}.cls-13{stroke:#b39356;stroke-width:5px;}.cls-14{fill:#f9dd9c;}.cls-16{fill:#904765;}.cls-17{fill:#94723f;}.cls-18{fill:#d47490;}.cls-19{fill:#30464c;}.cls-20{fill:#d48274;}.cls-21,.cls-23{stroke:#77563d;}.cls-22{fill:#51425e;}.cls-23{stroke-width:4px;}.cls-24{fill:#42545e;}.cls-25,.cls-26{stroke:#775650;}.cls-26{fill:#775650;}</style><linearGradient id="linear-gradient" y1="240.07" x2="674.16" y2="240.07" gradientUnits="userSpaceOnUse"><stop offset="0" stop-color="#278be1"/><stop offset="0.01" stop-color="#2b8de1"/><stop offset="0.17" stop-color="#54a5e5"/><stop offset="0.32" stop-color="#76b9e7"/><stop offset="0.48" stop-color="#90c8e9"/><stop offset="0.65" stop-color="#a2d3eb"/><stop offset="0.82" stop-color="#addaec"/><stop offset="1" stop-color="#b1dcec"/></linearGradient></defs><title>fisherman</title><g id="Layer_2" data-name="Layer 2"><g id="Capa_1" data-name="Capa 1"><g id="fisherman"><path class="cls-1" d="M674.16,240.08a96.85,96.85,0,0,1-.65,11.19c-4.3,37.1-29.84,71.14-70.23,98.73q-11.13,7.62-23.74,14.55-.63.36-1.26.69c-3.6,2-7.3,3.89-11.07,5.76a392.26,392.26,0,0,1-46.41,19.33C475.58,406,422.85,416,366.11,418.6q-14.36.66-29,.66c-49.2,0-95.94-5.6-138.08-15.68q-5.67-1.35-11.22-2.81a440.51,440.51,0,0,1-67.49-23.47l-2-.89q-4.14-1.87-8.17-3.84t-8-4q-4-2.08-8-4.26-5.34-3-10.43-6l-2.16-1.32-1.8-1.12a242.42,242.42,0,0,1-31.47-23.29c-4.32-3.81-8.39-7.7-12.17-11.69-1.84-1.92-3.61-3.87-5.3-5.83-1.24-1.42-2.44-2.86-3.59-4.3,0,0,0,0,0,0-1.38-1.69-2.7-3.41-4-5.13-.78-1.05-1.53-2.11-2.27-3.17-.28-.39-.54-.77-.81-1.16A122.72,122.72,0,0,1,7.05,276.69a100.55,100.55,0,0,1-6.9-31.41c-.1-1.73-.15-3.46-.15-5.2a99.87,99.87,0,0,1,7.15-36.85h0a117.71,117.71,0,0,1,9.36-18.68c.35-.57.7-1.14,1.06-1.7a158.22,158.22,0,0,1,23.35-28.4A213.58,213.58,0,0,1,62.53,136.1q3-2.25,6.16-4.44,3.54-2.49,7.24-4.88a305.36,305.36,0,0,1,29.71-17h0c27.91-14,60.33-25.53,96-33.86a566.57,566.57,0,0,1,63.91-11c18.21-2.09,37-3.4,56.15-3.86q7.65-.18,15.39-.18t15.66.19a615.81,615.81,0,0,1,69.13,5.53c3.28.45,6.55.93,9.79,1.43Q448.18,70.6,464,74q4.53,1,9,2l2.21.52c1.68.4,3.36.81,5,1.23q7.56,1.88,14.92,4,2.94.84,5.84,1.69c1.88.56,3.74,1.12,5.59,1.7q5.32,1.65,10.51,3.4A381,381,0,0,1,580.26,116q2.64,1.45,5.22,3,10.74,6.22,20.37,13,2.58,1.8,5.07,3.64,7.44,5.51,14.1,11.3l.55.48a185.68,185.68,0,0,1,16.82,16.7,147.1,147.1,0,0,1,14.26,18.88c.34.53.67,1.06,1,1.6a116.57,116.57,0,0,1,10.71,22.27A99.67,99.67,0,0,1,674,235.21c.07,1.26.11,2.52.12,3.79C674.16,239.36,674.16,239.72,674.16,240.08Z"/><path class="cls-2" d="M605.85,131.93q-9.61-6.75-20.37-13-2.58-1.5-5.22-3a381,381,0,0,0-63.21-27.45q-5.19-1.76-10.51-3.4c-1.85-.58-3.71-1.14-5.59-1.7s-3.88-1.13-5.84-1.69q-7.35-2.07-14.92-4c-1.66-.42-3.34-.83-5-1.23L473,76.05c-5.41,4.36-10.66,9-15.72,13.32a26.78,26.78,0,0,1-4.76,3.28h0a.94.94,0,0,1-.26.14c-5.07,2.69-10.8,3.6-17.1,3.18-21.81-1.46-50.48-19-82.37-34.89q-7.78-.19-15.66-.19t-15.39.18c-19.18.46-37.94,1.77-56.15,3.86-3.29,2.75-6.88,5.58-11,8.38-13.88,9.52-32.17,7.87-53,2.63-35.65,8.33-68.07,19.84-96,33.86h0a305.36,305.36,0,0,0-29.71,17q-3.71,2.4-7.24,4.88-3.15,2.19-6.16,4.44a30.39,30.39,0,0,0,.49,6.48,66,66,0,0,0,4.9,15.34c.52,1.19,1.07,2.4,1.68,3.63.22.47.45.95.69,1.43s.5,1,.75,1.41a15.43,15.43,0,0,0,2.21,3.1c3.89,4.08,8.26,1.72,15.45-3.6,1.85-1.36,3.86-2.92,6.12-4.6h0a191.26,191.26,0,0,1,16.89-11.51q3-1.82,6.43-3.65c13-6.94,29.91-13.65,52.54-17.62h0c4.75-.84,9.76-1.56,15-2.13,20.94-2.28,36.85-3.1,50.56-2.75A204.61,204.61,0,0,1,261,123.68c10.81,1.56,21.32,3.91,33.57,6.85h0l.18.05c4.2,1,8.61,2.09,13.3,3.24,8.36,2,17.64,4.26,28.3,6.63l4.27.94,4,.85c2.32.51,4.71,1,7.17,1.52l4.83,1h0l5.63,1.14,4.93,1,7,1.34,2.24.42q4.22.78,8.66,1.57l4,.71,7.83,1.35q6.24,1,12.92,2.13L414,155c1.34.21,2.65.42,4,.61h0l1.14.18c9.57,1.46,18.13,2.65,25.8,3.59l3.08.36H448c5.05.59,9.69,1.07,14,1.44,6.5.58,12.19.93,17.22,1.07h0l.78,0a140.89,140.89,0,0,0,15.35-.32,67.93,67.93,0,0,0,22.15-5.17l.71-.3h0l1.06-.45c7.05-3,13.83-6.51,26.6-8.9,4.16-.78,9-1.44,14.6-1.94,4.77-.42,10.15-.72,16.26-.87a134.43,134.43,0,0,0,18.74-1.54c8.92-1.51,13.72-4,15.44-7.26Q608.43,133.73,605.85,131.93Z"/><path class="cls-3" d="M625,146.87c-5.55,8.36-21.32,14.28-49.57,17h0q-3,.3-6.18.54-5,.39-10.42.64-5.22.26-10.89.39-3.65.09-6.94.25h0c-4.53.21-8.6.52-12.28.9-3.41.35-6.49.77-9.3,1.24h0a97.56,97.56,0,0,0-15.64,3.87h0c-10.17,3.49-15.88,7.56-26.65,9.88a91.69,91.69,0,0,1-17.19,1.83h-.19a230.75,230.75,0,0,1-23.92-.89h0c-1.65-.14-3.35-.28-5.11-.45h0l-3.54-.36h0q-3.8-.37-7.95-.86c-5.06-.6-10.52-1.3-16.42-2.12h0l-2.89-.41-1.92-.28q-8-1.16-17-2.6l-3-.48-2.39-.4h0c-27.72-4.55-49.44-8.91-67.3-12.88-1.79-.39-3.54-.79-5.26-1.18-19.8-4.49-34.73-8.42-48.11-11.43l-3.5-.78c-27.06-5.88-48.83-7.81-94.44-2.85-9.8,1.07-19,2.56-27.61,4.36-1.42.29-2.82.6-4.2.91h0a291.43,291.43,0,0,0-30.29,8.55h0q-5.77,2-11.07,4h0c-3.66,1.39-7.16,2.8-10.49,4.19l-2.52,1.06c-7.58,3.21-14.3,6.29-20.24,8.93-8.85,3.93-16,6.88-21.66,7.8-4.7.77-8.4.15-11.26-2.44a158.22,158.22,0,0,1,23.35-28.4A213.58,213.58,0,0,1,62.53,136.1q3-2.25,6.16-4.44,3.54-2.49,7.24-4.88c15.45.92,28.3,1.95,28.3,1.95a168.75,168.75,0,0,1,20.67-14.91c19.32-12,49.74-26.14,80.47-21.32,18.68,2.93,31.85,11.42,42.49,20,4.79,3.86,9.07,7.75,13.1,11.16,7.34,6.19,13.87,10.81,21.24,10.86,3.74,0,7.68-1.12,12.06-3.84h0a1.17,1.17,0,0,0,.25-.16h0c.41-.25.82-.52,1.24-.81a175.35,175.35,0,0,0,15.29-12.13c2.55-2.21,5.1-4.45,7.67-6.67,21.15-18.32,43.92-35.44,80.87-18.42a123.7,123.7,0,0,0,38.51,11.08c2.47.26,4.9.44,7.29.52,2.72.1,5.4.09,8,0,1.82-.07,3.61-.2,5.37-.38.44-.05.88-.09,1.32-.15.7-.08,1.39-.16,2.08-.27q4.41-.6,8.6-1.59l.24-.06a97,97,0,0,0,24.45-9.45h0c1.88-1,3.68-2.1,5.45-3.21q2.9-1.83,5.59-3.79,5.32,1.65,10.51,3.4A381,381,0,0,1,580.26,116q2.64,1.45,5.22,3,10.74,6.22,20.37,13,2.58,1.8,5.07,3.64Q618.36,141.08,625,146.87Z"/><path class="cls-4" d="M563,190.64l-.69.08-1.42.16c-3.44.37-7.36.63-11.81.77l-1.95,0c-15.31.35-25.91,1.6-33.93,3.28-11.27,2.37-17.42,5.56-24.32,8.24-1.21.47-2.45.93-3.73,1.35a61.89,61.89,0,0,1-6.08,1.72,74.23,74.23,0,0,1-9,1.47l-.61.07c-2.12.2-4.42.36-6.94.45h0c-1.39.05-2.84.08-4.36.09h0c-5.85.05-12.76-.2-21.11-.83-8.67-.66-18.87-1.73-31-3.31l-.22,0q-6.11-.79-12.88-1.76-4.87-.69-10.12-1.49l-4.27-.65h0l-1.47-.24-2.47-.38c-7-1.09-13.54-2.17-19.76-3.23-23.09-3.94-41.27-7.67-56.44-11-10.08-2.22-18.84-4.26-26.81-6.07-19.34-4.41-34.12-7.48-52.25-8.47h0c-5-.28-10.29-.4-16-.33h0c-1.33,0-2.67,0-4.05.07h-.08c-4.06.1-8.33.28-12.88.55h0q-5.88.36-12.41.91l-3.74.33h0c-2.49.22-5.05.47-7.7.74l-1.18.13h0a296.5,296.5,0,0,0-43.59,7.92c-7.49,2-14.47,4.08-21,6.27h-.07c-8.34,2.81-15.86,5.72-22.64,8.48-14.72,6-26,11.3-34.39,13.38s-13.93,1-17.45-5.65a49.84,49.84,0,0,1-4-10.08,44.1,44.1,0,0,1-1.52-9.12c-.06-1-.08-1.93-.06-2.87a11.37,11.37,0,0,0,1.12,1.17,158.22,158.22,0,0,1,23.35-28.4c9.59-1.28,17.13-6.87,22.1-11.86a50.1,50.1,0,0,0,6.81-8.39,24.13,24.13,0,0,1-1.14-2.53q3.54-2.49,7.24-4.88a305.36,305.36,0,0,1,29.71-17h0c6.46,1.07,12.89,2.46,19.25,4,15.92,3.9,31.39,8.88,45.8,12.68h0c23.46,6.19,44.13,9.24,59.38-.6,2.2-1.42,4.26-2.86,6.21-4.28,4.3-3.15,8-6.25,11.56-9.1,15.86-12.84,27.25-20.58,64.7-4.34l.25.11c2,.86,4,1.74,5.93,2.63,11.17,5,22,10.44,32.3,15.48l4.32,2.09c3.16,1.53,6.28,3,9.34,4.44l1.12.52c6.5,3,12.75,5.7,18.69,7.88,1.51.55,3,1.07,4.46,1.55a88,88,0,0,0,13.51,3.41c6.25,1,12,1,17.18-.48a26.72,26.72,0,0,0,9.84-5c5.15-4.16,10.5-8.6,16-12.77h0c3.2-2.41,6.46-4.71,9.77-6.82a87.66,87.66,0,0,1,9.26-5.17l.72-.34c.81-.37,1.63-.73,2.45-1.07,9.24-3.81,18.83-5.12,28.69-1.76h0a40.68,40.68,0,0,1,6.95,3.17,53.84,53.84,0,0,1,9.23,6.73c.87.78,1.79,1.57,2.75,2.37,5.42,4.53,12.12,9.35,19.15,14.26,3.73,2.59,7.56,5.21,11.33,7.82,2.6,1.79,5.17,3.58,7.67,5.34,5.79,4.1,11.21,8.11,15.71,11.91,1.09.92,2.12,1.83,3.09,2.72C584.71,178.49,587,187.56,563,190.64Z"/><path class="cls-5" d="M389,142.88A24.7,24.7,0,0,0,351,126.4a25.75,25.75,0,0,0-2.82,2.16,24.33,24.33,0,0,0-7.63,12.83,20.36,20.36,0,0,0-.4,2.18,24.38,24.38,0,0,0,1.7,13,25.07,25.07,0,0,0,4.44,6.94,24.64,24.64,0,0,0,35,1.64c.29-.26.57-.53.84-.8a25.34,25.34,0,0,0,2.16-2.49,24.39,24.39,0,0,0,4.68-11A24.75,24.75,0,0,0,389,142.88Zm-10,18.93-.15.14a19,19,0,0,1-2.39,2,20.45,20.45,0,0,1-13.39,3.67,20.75,20.75,0,0,1-14.27-7.42,18,18,0,0,1-1.31-1.68,19.55,19.55,0,0,1-3.36-8.81,18.21,18.21,0,0,1-.14-3,20.3,20.3,0,0,1,.56-4.39,20.94,20.94,0,0,1,8.4-12.31,20.56,20.56,0,0,1,2.42-1.44,20.83,20.83,0,0,1,26.27,6.73,20,20,0,0,1,2.88,6.11A20.77,20.77,0,0,1,379,161.81Z"/><path class="cls-6" d="M384.51,141.33a20,20,0,0,0-2.88-6.11,20.83,20.83,0,0,0-26.27-6.73,20.56,20.56,0,0,0-2.42,1.44,20.94,20.94,0,0,0-8.4,12.31,20.3,20.3,0,0,0-.56,4.39,18.21,18.21,0,0,0,.14,3,19.55,19.55,0,0,0,3.36,8.81,18,18,0,0,0,1.31,1.68,20.75,20.75,0,0,0,14.27,7.42,20.45,20.45,0,0,0,13.39-3.67,19,19,0,0,0,2.39-2l.15-.14a20.77,20.77,0,0,0,5.52-20.48Zm-6.2,10.08-5.41,3.79,2.3,3.29-.25.18-3.08,2.16-2.28-3.25-3.53,2.47-2,1.4c-.08-.12-.16-.24-.25-.35-.33-.46-.67-.9-1-1.35a4,4,0,0,1-.22-.34,5.23,5.23,0,0,1-.37-.7,2.92,2.92,0,0,1-.19-.49,3,3,0,0,1-.13-.52,1.86,1.86,0,0,1-.06-.34,1.66,1.66,0,0,1,0-.24c0-.2,0-.4,0-.61,0-.69.08-1.38.11-2.07,0-1,.08-2.09.12-3.13,0-.24,0-.48,0-.72,0-.68,0-1.37,0-2.06,0-.88,0-1.76,0-2.64v-.07c0-1.19,0-2.38.07-3.57,0-.43,0-.86,0-1.5l-5.7,4h0l-2.77,1.94-2.06-2.93-.77-1.1,5.47-3.83-2.39-3.4,3.3-2.31c.76,1.07,1.5,2.14,2.34,3.34l5-3.53.47-.33.65.85.33.45a8.07,8.07,0,0,1,.57.91,4.16,4.16,0,0,1,.24.47c.06.13.11.25.16.38l.06.19a.76.76,0,0,1,.06.2,1.67,1.67,0,0,1,.08.32,3.08,3.08,0,0,1,.08.53,4.41,4.41,0,0,1,0,.52c0,.12,0,.25,0,.37-.12,1.75-.19,3.5-.24,5.26,0,1.27-.05,2.53-.07,3.8,0,1.65-.06,3.31-.1,5,0,.39,0,.77,0,1.35l7.11-5,1.3-.91c.32.45.62.89.94,1.33C377,149.52,377.62,150.43,378.31,151.41Z"/><path class="cls-5" d="M378.31,151.41l-5.41,3.79,2.3,3.29-3.33,2.34-2.28-3.25-5.53,3.87c-1.09-1.59-2.34-2.79-2.2-4.94.3-4.74.28-9.5.39-14.26,0-.43,0-.86,0-1.5l-8.48,5.94-2.83-4,5.47-3.83-2.39-3.4,3.3-2.31c.76,1.07,1.5,2.14,2.34,3.34l5.51-3.86c1.26,1.63,2.39,3,2.25,5.19-.31,4.67-.3,9.35-.41,14,0,.39,0,.77,0,1.35l8.41-5.89Z"/><path class="cls-2" d="M516.59,163.92s17.72-32.31-32.47-24.9-98.78,35.34-127.78,16.61-32.94-39.19-82.48-17.71S181,190,156.92,170.5s-52.64-45.33-83.14-18-66.57,75.11,15.11,77-20,21.64,114.78,1.27,129.89-37,220.42-27.78,128,53.71,140.28,30.56,3.39-48.14-16.29-49.07S516.59,163.92,516.59,163.92Z"/><path class="cls-2" d="M611.59,230.31l0-.43a32.86,32.86,0,0,0-2.59-11h0a23.6,23.6,0,0,0-8.66-10.56A20.94,20.94,0,0,0,589.75,205,33,33,0,0,1,575,200.53a48.54,48.54,0,0,1-12-9.89,46.18,46.18,0,0,1-4.7-6.16A27.75,27.75,0,0,0,560.1,180h0c1.31-4.11,2.29-10.26-1.26-15-2.06-2.71-5.63-4.93-11.55-6h0c-5.18-.91-12.17-.91-21.49.47-1.4.21-2.79.43-4.19.67-1.22.2-2.45.42-3.67.65-1.59.3-3.17.61-4.76.94h0c-12,2.5-23.74,5.85-35.09,9.13l-8.68,2.5-1.74.5-.29.08h-.09c-5,1.43-9.86,2.78-14.65,4-5.16,1.28-10.17,2.37-15,3.16-2.36.38-4.67.7-6.94.93h0c-1.42.14-2.81.25-4.2.33a69.28,69.28,0,0,1-8.16,0,44,44,0,0,1-15.56-3.64h0c-.76-.33-1.5-.7-2.23-1.09-.48-.26-1-.53-1.43-.81s-.72-.43-1.07-.66a161.43,161.43,0,0,1-14.08-10.39l-1.77-1.42c-1-.83-2-1.64-3-2.42l-.18-.15c-1.37-1.09-2.71-2.15-4-3.14a48.88,48.88,0,0,0-12.86-7.36,36,36,0,0,0-14.61-1.94c-1.09.06-2.2.16-3.36.3s-2.59.38-4,.64c-2.27.43-4.67,1-7.24,1.75a145.87,145.87,0,0,0-17.39,6.41q-3.66,1.59-7.27,3.23c-2,.92-4,1.84-6,2.78h0c-10.66,5-20.95,10.17-30.75,14.9l-4,1.89c-27,12.84-50,21.46-65.83,12a24.75,24.75,0,0,1-2.54-1.73l-.58-.45-.12-.09c-5.86-4.74-12-9.84-18.33-14.46-1.56-1.14-3.13-2.25-4.72-3.31-.54-.37-1.09-.73-1.64-1.09l-1.15-.74c-8.71-5.5-17.79-9.55-27.17-10.11-9.72-.59-19.76,2.58-30,11.76q-2.1,1.88-4.52,3.83c-4.25,3.43-9.15,7-14.32,10.65h-.07c-7.62,5.37-15.82,10.87-23.32,16.23l-1.93,1.38c-3.15,2.27-6.15,4.5-8.9,6.68-1.72,1.36-3.35,2.7-4.85,4a61.56,61.56,0,0,0-6.58,6.5c-5.76,6.76-6.42,12.36,2.26,15.85a37.15,37.15,0,0,0,6.24,1.8A123,123,0,0,0,81,242c2.35,0,4.59.13,6.72.22,13.21.59,22.47,1.92,29.6,3.6h0c25.56,6,23.63,16.33,77.56,11.72,13.11-1.12,29.53-3.12,50.45-6.28,15.76-2.38,29.6-4.71,41.91-6.95h0c9.94-1.82,18.89-3.57,27-5.25l.24-.05c3.2-.66,6.27-1.31,9.23-1.95s6-1.31,8.87-1.94c5-1.1,9.64-2.17,14-3.18h0l11.26-2.57c4.28-1,8.34-1.88,12.27-2.7,5.94-1.25,11.58-2.33,17.23-3.2h0c2.75-.43,5.5-.81,8.29-1.13a222.7,222.7,0,0,1,28.57-1.47h0c4.5,0,9.27.19,14.39.45s10.75.66,16.76,1.19c3.29.28,6.71.61,10.29,1l3.09.33c3.14.36,6.21.75,9.22,1.19q2.9.4,5.71.88c9.76,1.59,18.82,3.57,27.22,5.77,6.09,1.6,11.84,3.31,17.25,5.08h0c1.06.34,2.1.69,3.13,1,1.22.41,2.43.82,3.61,1.24,9.41,3.29,17.75,6.67,25.12,9.75q3.11,1.29,6,2.52C587.8,260.41,600,265.46,606,254c.49-.92.94-1.84,1.36-2.76.27-.6.53-1.16.76-1.75h0s0,0,0,0a46.47,46.47,0,0,0,3-10.49A40.25,40.25,0,0,0,611.59,230.31Z"/><path class="cls-7" d="M510.15,298.86s71.35,8.8,86.74,10,29.4,2.61,17.4-25,19.21-58.6-17.4-72Z"/><path class="cls-2" d="M590.82,218.27h0l-.11-.19c-.1-.19-.22-.38-.34-.57h0c-3-4.85-8.86-10.38-16.06-16.25-3-2.41-6.14-4.88-9.45-7.37h0c-1.31-1-2.65-2-4-3-2.15-1.59-4.33-3.19-6.52-4.79l-1.14-.84c-6.18-4.52-12.37-9-18-13.43-2.26-1.76-4.43-3.51-6.47-5.21s-4.22-3.63-6.05-5.37l-1.07-1c-.91-.83-1.82-1.61-2.72-2.34-.38-.31-.75-.6-1.13-.89l-.25-.19c-8.28-6.26-16.41-8.63-24.34-8.35a37.68,37.68,0,0,0-4.61.46,44.09,44.09,0,0,0-7.83,2.05h0A78.55,78.55,0,0,0,462,161.23c-5.29,3.76-10.44,8-15.43,12.26-2.85,2.44-5.65,4.88-8.39,7.23-.18.16-.36.31-.55.45-.6.5-1.19,1-1.81,1.38h0c-.47.33-1,.63-1.44.91a28.2,28.2,0,0,1-12.52,3.85,41.19,41.19,0,0,1-6.28,0,62.57,62.57,0,0,1-11.1-2c-1.23-.32-2.48-.69-3.75-1.08q-3.19-1-6.51-2.24C389,180,383.58,177.66,378,175c-.63-.29-1.27-.6-1.91-.91q-3-1.44-6.05-3c-2.28-1.14-4.6-2.31-6.94-3.51-4.65-2.4-9.41-4.89-14.27-7.42l-6.9-3.56q-4.44-2.28-9-4.54c-4.47-2.23-9-4.43-13.59-6.54s-8.7-3.81-12.53-5.2c-12.28-4.44-21.23-5.48-28.6-4.22h0A37.26,37.26,0,0,0,262.53,143h0c-2.53,1.79-5,3.84-7.61,6.05-5.56,4.74-11.58,10.22-19.37,15.57a38.54,38.54,0,0,1-16.27,6.25h0a66,66,0,0,1-17.17.1h0c-1-.1-1.91-.22-2.88-.36h-.08c-19.13-2.68-41.2-11-64.44-17.41q-4.72-1.32-9.5-2.51h0c-4.44-1.11-8.91-2.11-13.4-3q-3-.57-6.06-1.05c-11.14-1.75-19-1.45-24.45.09-6.06,1.7-9.18,4.92-10.61,8.56a16.08,16.08,0,0,0-1,6.18,22.62,22.62,0,0,0,.26,3.11,30.28,30.28,0,0,0,.87,3.89,31.65,31.65,0,0,0,1.94,5.06s2.56,11.86,1.22,22.4a28.49,28.49,0,0,1-2,7.94,13,13,0,0,1-.57,1.19,11.87,11.87,0,0,1-8.9,6.68,13.77,13.77,0,0,1-1.63.18c-.76,0-1.49.1-2.2.18-6.15.71-10.35,3.06-12.73,6.82-3.48,5.47-3.09,13.94.77,24.65h0c.65,1.81,1.41,3.67,2.26,5.61q1.08,2.46,2.37,5.06c.32.63.63,1.22,1,1.75,4.08,6.93,8.23,5.71,15.38.68,5-3.5,11.36-8.83,20.17-14.55,3.41-2.22,7.18-4.49,11.37-6.74,3.11-1.66,6.45-3.31,10-4.92a178.25,178.25,0,0,1,39.92-12.23h0c5.52-1,11.38-1.92,17.61-2.6,28.29-3.07,47.4-3.5,64.3-2a256.78,256.78,0,0,1,35.43,6h0c3,.68,6,1.4,9.22,2.17h0c4.74,1.14,9.74,2.37,15.13,3.68,7.89,1.91,16.59,4,26.48,6.19h0l3.2.71q5.81,1.28,12.17,2.6,4.46.93,9.23,1.88,5,1,10.32,2,4.32.83,8.89,1.66h0c9.07,1.65,18.9,3.34,29.59,5.06,2.81.45,5.53.88,8.18,1.28,11.86,1.83,22.18,3.23,31.21,4.27,32.69,3.77,48.47,2.79,59.27,0a73.65,73.65,0,0,0,10.88-3.84l4.75-2.08A93.77,93.77,0,0,1,524.41,239q2.64-.56,5.65-1l1.33-.2c2.47-.37,5.12-.71,8-1h0l1.19-.11c5-.46,10.6-.79,17-.94,1.89-.05,3.7-.11,5.42-.2,4.26-.22,8-.56,11.24-1h0l1.22-.19C592.05,231.72,595.14,225.89,590.82,218.27Z"/><path class="cls-5" d="M198.79,203.25a22,22,0,1,1-8.12-30.1A22,22,0,0,1,198.79,203.25Z"/><path class="cls-6" d="M199.17,191.51c0-.24,0-.48,0-.73a19.45,19.45,0,0,0-9.65-15.41l-.58-.33a19.41,19.41,0,0,0-13.47-1.84A19.13,19.13,0,0,0,163,182.26a19.71,19.71,0,0,0-2.51,13,19.48,19.48,0,0,0,38.7-3.71Zm-18.39-2.63c-2.43-.21-4.86-.48-7.28-.74,0-.08,0-.15,0-.23l12.05-6.8.19.15-1.14,2c-1,1.7-1.93,3.41-2.94,5.09A1.23,1.23,0,0,1,180.78,188.88Zm.15.56c-1.08,1.88-2.11,3.69-3.21,5.59l-.72,1.25-.65-1.13c-1.24-2.18-2.48-4.33-3.79-6.63Zm-8.58,6c-.16-1.64-.31-3.27-.46-4.91l.21-.07,2.75,4.84,1.17,2.09a.85.85,0,0,1,0,.68,43,43,0,0,1-3,4.8Zm1.54,7.86-.16-.17c.91-1.57,1.79-3.15,2.73-4.69a1,1,0,0,1,.74-.44c2.62-.06,5.24-.07,7.92.08Zm3.65-6.69.94-1.63,3-5.19,3.22,4.36,1.76,2.38Zm8.86-1L185.27,194c-1.11-1.5-2.22-3-3.3-4.52a1,1,0,0,1,.09-.86c1.33-2.35,2.68-4.69,4-7l.24,0q.12,6.08.23,12.16l0,1.7Z"/><path class="cls-5" d="M173.48,187.91l12.05-6.8.19.15-1.14,2c-1,1.7-1.93,3.41-2.94,5.09a1.23,1.23,0,0,1-.86.56c-2.43-.21-4.86-.48-7.28-.74Z"/><path class="cls-5" d="M186.33,181.63q.13,6.93.26,13.86l-.19.06c-1.49-2-3-4-4.43-6.05a1,1,0,0,1,.09-.86c1.33-2.35,2.68-4.69,4-7Z"/><path class="cls-5" d="M172.56,188.52l8.37.92L177,196.28Z"/><path class="cls-5" d="M186.44,196.5l-8.9.08,3.92-6.82Z"/><path class="cls-5" d="M172.1,190.43c1.31,2.31,2.63,4.62,3.92,6.93a.85.85,0,0,1,0,.68,43,43,0,0,1-3,4.8q-.57-6.17-1.15-12.34Z"/><path class="cls-5" d="M173.73,203.1c.91-1.57,1.79-3.15,2.73-4.69a1,1,0,0,1,.74-.44c2.62-.06,5.24-.07,7.92.08l-11.23,5.22Z"/><path class="cls-7" d="M608.17,249.49s0,0,0,0h0c0,.58-.08,1.16-.15,1.75a53.63,53.63,0,0,1-5.45,18.53c-5.35,10.73-15.42,8-32.47.61-6.31-2.73-13.57-6.11-21.91-9.69-2.47-1.05-5-2.13-7.68-3.2h0c-5.14-2.08-10.64-4.19-16.52-6.24-1.39-.48-2.81-1-4.25-1.44h0c-4.68-1.56-9.6-3.07-14.75-4.48q-2.18-.6-4.41-1.17c-7.65-2-15.82-3.74-24.53-5.18l-4.11-.65q-5.81-.87-11.91-1.54c-5.92-.64-11.45-1.17-16.63-1.59l-1.65-.13h0c-7-.54-13.33-.87-19.23-1-3.72-.1-7.26-.12-10.66-.06a208,208,0,0,0-34.49,3.31h0l-3.71.69c-1.63.31-3.26.64-4.92,1q-3.74.78-7.6,1.66h0c-4.62,1.05-9.43,2.21-14.56,3.45l-9.94,2.42c-6.12,1.49-12.73,3.07-20,4.74-9.39,2.16-19.89,4.44-31.89,6.83q-5.09,1-10.55,2h0c-11.37,2.15-24,4.37-38.1,6.64q-3.83.61-7.45,1.17h0c-26.07,4-44.75,6-58.66,6.64-18.79.83-28.89-.87-36.76-3.52h0c-9.73-3.26-16.07-8-31.24-11.09-8-1.64-18.32-2.85-32.87-3.2l-1.45,0q-8.16-.21-15.38-.68-4.91-.3-9.37-.72a197.56,197.56,0,0,1-22.51-3.24C11.7,250.31,5,248,.15,245.28c-.1-1.73-.15-3.46-.15-5.2a99.87,99.87,0,0,1,7.15-36.85h0c3.5-3.26,7.15-6.47,10.88-9.56,3.53-2.92,7.14-5.73,10.8-8.38a143.78,143.78,0,0,1,28.81-16.64,78.22,78.22,0,0,1,12.22-4l1.18-.27a47.84,47.84,0,0,1,12.71-1.09,35,35,0,0,1,5,.59,31.08,31.08,0,0,1,14.65,7c2.38,2,4.91,4,7.57,5.93q3.18,2.29,6.63,4.38A96.56,96.56,0,0,0,157.8,195q1.32.14,2.67.24a95.4,95.4,0,0,0,11.88.19c.83,0,1.66-.08,2.5-.14l1.5-.12c.46,0,.91-.07,1.37-.12l.76-.08c2-.21,4.11-.48,6.2-.83l.59-.1c.43-.07.86-.14,1.29-.23A114.75,114.75,0,0,0,198.47,191l.65-.19c.82-.25,1.66-.5,2.49-.78a135.9,135.9,0,0,0,15.74-6.15c20.32-9.36,36.36-8.39,50.19-2.58,10.27,4.32,19.33,11.31,28,18.73l.63.54h0c3.95,3.39,7.84,6.85,11.73,10.17a161.71,161.71,0,0,0,13.23,10.36,30.11,30.11,0,0,0,6.76,3.58c6.13,2.24,11.49,1.28,16.8-1.54,8.66-4.58,17.22-14.09,28.83-22.72l.94-.7c2.42-1.76,5-3.48,7.68-5.1a81.43,81.43,0,0,1,17.46-7.94c1.55-.49,3.15-1,4.8-1.35q3.42-.87,7.13-1.45,3.17-.49,6.33-.73c2.71-.21,5.42-.27,8.11-.22s5.58.25,8.33.56a111.47,111.47,0,0,1,21.2,4.57c2.44.77,4.84,1.6,7.18,2.49A158.29,158.29,0,0,1,479,197.77q2.43,1.24,4.72,2.52c1.77,1,3.48,2,5.13,2.93,3.8,2.26,7.25,4.49,10.26,6.55a153.34,153.34,0,0,1,13.62,10.31s3.9-.31,10-.75c9.14-.65,23.23-1.59,36.44-2.16,3.62-.15,7.17-.28,10.53-.37,6.38-.17,12.09-.19,16.32,0a21.32,21.32,0,0,1,4.37.67h0c.24.05.48.12.72.19l.21.07c7.4,2.32,12.75,8.66,15.28,17q.1.3.18.6a34.71,34.71,0,0,1,.84,3.62A43.5,43.5,0,0,1,608.17,249.49Z"/><path class="cls-3" d="M548.3,286.39l-1.69.12c-2.72.19-5.69.33-8.92.4-6.22.14-11.65.43-16.46.84h0c-29.54,2.52-35.15,9.47-49.64,13.28h0A83.22,83.22,0,0,1,454,303.46c-13.89.62-34.56-.7-68.85-5.55q-5.67-.81-11.84-1.74c-9.25-1.4-17.84-2.78-25.85-4.14-28.45-4.81-49.57-9.31-66.74-13.19-11.73-2.64-21.62-5-30.76-6.94h0c-7.45-1.59-14.4-2.92-21.44-3.93h0c-17.36-2.49-35.27-3-62.52-.79-1.71.14-3.46.29-5.25.46h0l-4.47.41-3.36.34q-10.37,1.07-19.81,2.7h0c-10.08,1.7-19.39,3.82-28,6.16-21.65,5.88-38.82,13.15-52.33,18.85h-.06c-13,5.48-22.6,9.5-29.51,9.42-.78-1.05-1.53-2.11-2.27-3.17-.28-.39-.54-.77-.81-1.16A122.72,122.72,0,0,1,7.05,276.69c.19-11.09,5.07-20.45,13.24-24.57a21.09,21.09,0,0,1,8.65-2.24,34.26,34.26,0,0,0,17.65-6.22h0a46,46,0,0,0,6.62-5.46,49.65,49.65,0,0,0,7.22-8.79,27.45,27.45,0,0,1-1.67-4,21.88,21.88,0,0,1-1.23-9.61,12.66,12.66,0,0,1,1-3.66c1.7-3.75,5.56-7,13.3-8.23l1.36-.19c5-.62,11.4-.48,19.69.74,19.29,2.85,38.35,8.73,56.15,13.82h0c28.5,8.17,53.77,14.32,71.62,2.79,3.81-2.46,7.19-5,10.29-7.37,19.27-15,28-27.38,64.56-13.46l.68.26h0q3.31,1.28,6.94,2.85,6.25,2.72,12.38,5.59c6.38,3,12.63,6,18.73,9,3.55,1.73,7,3.45,10.47,5.11,2.39,1.16,4.76,2.3,7.09,3.4q3.09,1.47,6.11,2.85c5.93,2.71,11.63,5.15,17.09,7.15l2.28.81h0c1.74.61,3.44,1.17,5.13,1.68,12.8,3.84,24,4.63,33,0a26.58,26.58,0,0,0,4.65-3l2.37-1.91c5.22-4.25,10.64-8.7,16.24-12.76,7-5.11,14.32-9.62,21.85-12.37h0c.63-.23,1.25-.45,1.89-.65h0a46.07,46.07,0,0,1,7-1.7c.42-.07.83-.13,1.25-.18a37.28,37.28,0,0,1,8.25-.11,35.17,35.17,0,0,1,7.06,1.45h0a41.84,41.84,0,0,1,10.27,4.9,56.17,56.17,0,0,1,6.87,5.3c2.91,2.61,6.32,5.33,10,8.11h0l1.77,1.31c4.15,3.06,8.63,6.19,13.19,9.35h0l1.8,1.24,1.51,1c6,4.12,12,8.25,17.5,12.27,1.69,1.23,3.33,2.45,4.9,3.65,7.32,5.61,13.23,10.89,16.12,15.49C575.23,278.55,570.94,284.55,548.3,286.39Z"/><path class="cls-2" d="M550.9,303.78a45.38,45.38,0,0,1-4,17.69q-.74,1.68-1.62,3.36c-3.31,6.26-8.47,7.58-16,6-5.34-1.13-11.87-3.71-19.8-7l-.34-.14h0c-9.59-4-21.21-9.09-35.19-14-6.16-2.15-12.78-4.26-19.89-6.22a296.32,296.32,0,0,0-49-9.19c-3.06-.31-6-.59-8.85-.85h0c-20.14-1.8-35.29-2.16-48.65-1.39a220.53,220.53,0,0,0-25,2.91h0c-9,1.54-18.09,3.57-28.61,6h0l-2.86.65-.52.12-7.61,1.75h-.08l-7.56,1.7-5.62,1.26-5.26,1.14-3.24.7-5.37,1.13c-5,1.05-10.37,2.13-16.07,3.23h0l-5.93,1.14h0l-1.63.3c-13.67,2.56-29.3,5.23-47.47,8-11.15,1.69-20.69,3.1-28.84,4.27-90.39,12.95-11-3.84-85.94-5.54-12.61-.29-22.41-1.67-29.86-3.91a46.16,46.16,0,0,1-8.07-3.19,28.36,28.36,0,0,1-4.67-3s0,0,0,0c-1.38-1.69-2.7-3.41-4-5.13-.78-1.05-1.53-2.11-2.27-3.17-.18-.48-.33-1-.46-1.44-3.55-13.17,8.21-30.7,22.32-45.58,2-2.09,4-4.13,6.05-6.09s3.92-3.71,5.86-5.45A60.33,60.33,0,0,1,59.45,240c13.72-9.94,27-9.6,39.64-4.52a91.61,91.61,0,0,1,18.23,10.34h0c3.07,2.17,6.09,4.46,9.06,6.8,3.92,3.09,7.75,6.24,11.47,9.24,5.27,4.25,11.46,6.12,18.43,6.2,1.55,0,3.15-.05,4.79-.19s3.26-.38,4.94-.68c8.75-1.56,18.43-5.08,28.87-9.65,18.09-7.91,38.41-18.94,59.91-28.26a133.13,133.13,0,0,1,20.83-7.34h0a53.6,53.6,0,0,1,16.15-1.77c10.41.63,17.54,5.35,25.46,11.64h0l2.2,1.77,4.3,3.48c.8.65,1.61,1.3,2.44,1.95s1.45,1.13,2.2,1.71c2.51,1.92,5.21,3.87,8.17,5.82l.7.45a36.73,36.73,0,0,0,9.31,4.29,49.74,49.74,0,0,0,13.53,2,98.71,98.71,0,0,0,20.67-2c5.8-1.11,11.84-2.59,18.07-4.27,9-2.43,18.49-5.29,28.18-8,4.84-1.36,9.73-2.69,14.68-3.91h0l2.3-.56h0c6.94-1.67,14-3.12,21-4.16a86.52,86.52,0,0,1,15.46-1.07h0c12.35.43,17.52,4.72,19.27,9.7a14.45,14.45,0,0,1,.76,5.18,20.21,20.21,0,0,1-.34,3.25,27.06,27.06,0,0,1-1,3.84c-.12.34-.23.67-.34,1h0a25,25,0,0,1-1.34,3s11.81,19.55,31.49,20.48a22.26,22.26,0,0,1,3.71.48,21.34,21.34,0,0,1,13.89,10.28A32.44,32.44,0,0,1,550.9,303.78Z"/><path class="cls-2" d="M588.87,308.1c-3.69-6.85-10-11.4-18.19-11.79-9.4-.45-17-5.14-22.38-9.92a51.46,51.46,0,0,1-9.11-10.56,28.57,28.57,0,0,0,2.86-8.95h0a14.46,14.46,0,0,0-1.55-9.35h0c-1.53-2.6-4.26-4.86-8.81-6.24a39.81,39.81,0,0,0-12-1.44h0a93.52,93.52,0,0,0-13,1.09l-2.27.35c-1.87.3-3.72.62-5.58,1h0c-47.36,8.88-92.44,33-119.92,15.3-7.56-4.88-13.42-9.89-18.83-14.23-.87-.7-1.72-1.38-2.57-2a62.6,62.6,0,0,0-11-7.16,35.45,35.45,0,0,0-18.11-3.4,66.23,66.23,0,0,0-14.11,2.57,145.49,145.49,0,0,0-17.83,6.54c-3.77,1.63-7.5,3.32-11.19,5s-7.49,3.52-11.16,5.29h0c-8.31,4-16.37,8-24.1,11.74h0c-29.51,14.11-54.3,23.55-70.47,10.51-3.14-2.53-6.35-5.18-9.64-7.8-2.88-2.3-5.81-4.58-8.8-6.75l-.31-.22h0c-10.86-7.88-22.37-14.31-34.37-15-8-.48-16.17,1.56-24.52,7.39a59.25,59.25,0,0,0-5.49,4.37c-2.48,2.22-5.33,4.52-8.42,6.88-10.46,8-23.73,16.63-35.18,24.85h-.06c-8.7,6.24-16.33,12.25-20.83,17.55-.39.45-.75.89-1.08,1.33,1.69,2,3.46,3.91,5.3,5.83,3.78,4,7.85,7.88,12.17,11.69,3.91.42,8.44.69,13.65.81,33.92.77,44.76,6,55.49,10.41,12.46,5.12,24.78,9.12,72.91,3.68,10.24-1.16,22.11-2.74,35.94-4.83l3.09-.47,3.17-.49,2.63-.41h0c6.34-1,12.35-2,18.07-3,3.19-.54,6.28-1.08,9.29-1.61q6.09-1.08,11.71-2.14,5-.94,9.7-1.86,5.79-1.14,11.09-2.23l3.65-.76h0l5.77-1.22c5.89-1.27,11.35-2.48,16.45-3.64,14.52-3.29,26.22-6.1,37.28-8.23l2.26-.42c23.73-4.4,45.15-5.53,86.2-1.33q2.93.3,5.79.65a306.63,306.63,0,0,1,76.18,19.59c2,.8,4,1.59,5.93,2.37,6.19,2.51,11.77,4.91,16.79,7,19,7.94,30,11.58,35.59.94a46.51,46.51,0,0,0,5.6-20.87A33.1,33.1,0,0,0,588.87,308.1Z"/><path class="cls-3" d="M603.28,350q-11.13,7.62-23.74,14.55a22.9,22.9,0,0,1,.85,2.18l-2.11-1.49c-3.6,2-7.3,3.89-11.07,5.76-18.05-7.26-44.36-20.07-81.87-27.52-8.69-1.73-18-3.17-27.91-4.19-42-4.3-63.5-3-87.92,1.65-19.25,3.67-40.33,9.43-74.79,16.19q-5.64,1.11-11.77,2.24l-.12,0c-7,1.31-14.54,2.64-22.66,4l-.14,0h0c-3.77.63-7.65,1.27-11.68,1.91q-5.49.87-11.32,1.75c-88,13.3-96.34,6.07-114.24-1.05l-2.15-.84c-1-.39-2.08-.77-3.19-1.15a97.73,97.73,0,0,0-15-3.73c-2.24-.38-4.67-.74-7.32-1.05-3.41-.4-7.18-.74-11.39-1l-2.16-1.32-1.8-1.12a242.42,242.42,0,0,1-31.47-23.29c-4.32-3.81-8.39-7.7-12.17-11.69-1.84-1.92-3.61-3.87-5.3-5.83-1.24-1.42-2.44-2.86-3.59-4.3,0,0,0,0,0,0-1.38-1.69-2.7-3.41-4-5.13-.78-1.05-1.53-2.11-2.27-3.17-.28-.39-.54-.77-.81-1.16l.35-.28C42.23,283.61,67.59,269.82,88,271.25a32.56,32.56,0,0,1,17.15,6c.46.32.91.67,1.36,1,24.1,19.45,62.65,33.45,112.18,12,25.12-10.89,43.57-6.69,59.45,2.55a120.56,120.56,0,0,1,12.9,8.77l.4.31c10,7.7,19.41,16.37,29.42,22.84l.13.08A30.43,30.43,0,0,0,327.4,328a19.41,19.41,0,0,0,8.86,1c7.44-.88,14.15-6.09,22-12.48l1.36-1.1c7.12-5.82,15.21-12.44,25.6-17.56a80.13,80.13,0,0,1,11-4.49h0a82.7,82.7,0,0,1,13.6-3.17c22.16-3.27,44.13,2.88,61.79,10.78h0c4.54,2,8.79,4.17,12.69,6.31a175.57,175.57,0,0,1,24.85,16.3h0l.18.15h.16c1.3-.1,10.41-.77,22-1.47,4.83-.29,10.11-.59,15.43-.85,13.1-.64,26.5-1.07,34.5-.69a20.87,20.87,0,0,1,11.15,3.73C599.76,329.52,603.75,339.07,603.28,350Z"/><path class="cls-7" d="M580.39,366.73l-2.11-1.49c-3.6,2-7.3,3.89-11.07,5.76a392.26,392.26,0,0,1-46.41,19.33c-21-8.34-48.55-17.56-84.49-21.24-90.54-9.26-85.62,7.41-220.43,27.78-10.44,1.58-19.76,2.87-28.1,3.9a440.51,440.51,0,0,1-67.49-23.47l-2-.89q-4.14-1.87-8.17-3.84t-8-4q-4-2.08-8-4.26-5.34-3-10.43-6l-2.16-1.32-1.8-1.12a242.42,242.42,0,0,1-31.47-23.29c-4.32-3.81-8.39-7.7-12.17-11.69,1.27-1.34,2.56-2.67,3.85-4,5.64-5.7,11.32-11,16.32-15.44,25.8-23.08,71.43,4.17,99.48,24.89,5.12,3.79,9.66,7.36,13.38,10.36,14,11.26,34.37,5.75,58.69-5.06.72-.32,1.44-.64,2.17-1,1.24-.55,2.49-1.13,3.75-1.71h0c5.36-2.49,10.89-5.18,16.56-8,6.52-3.19,13.24-6.5,20.11-9.75,1.26-.6,2.53-1.2,3.81-1.79,3.35-1.56,6.74-3.11,10.16-4.6h0l.33-.14h0l1.31-.58q2.51-1.08,4.86-2l.46-.18c.83-.34,1.66-.65,2.46-1h0c12.14-4.61,21.2-6.31,28.61-6h0c15.28.71,23.5,10.12,37.09,20.53l.9.68c2.48,1.88,5.14,3.78,8.06,5.66,20.39,13.16,50.45,3.27,83.93-6.34,7-2,14.19-4,21.45-5.79,3.43-.84,6.88-1.63,10.34-2.34q6-1.24,12.06-2.15c33.86-5,36.82,8.08,35.16,17.13a29.16,29.16,0,0,1-2.68,7.78s.15.26.46.71a50.19,50.19,0,0,0,4.16,5.36c.37.41.75.83,1.16,1.26,5.19,5.51,13.72,12.25,24.83,13.09q.44,0,.87.06c9,.43,15.78,5.92,19.25,14A22.9,22.9,0,0,1,580.39,366.73Z"/><path class="cls-8" d="M298.41,326.53a32.57,32.57,0,1,1-37.09-27.29A32.57,32.57,0,0,1,298.41,326.53Z"/><path class="cls-8" d="M294.71,324a32.57,32.57,0,1,1-37.09-27.29A32.57,32.57,0,0,1,294.71,324Z"/><path class="cls-9" d="M304.5,328.44c-.07-.9-.18-1.8-.32-2.7a37.64,37.64,0,0,0-13.24-23.68l-.46-.37a38.83,38.83,0,0,0-12.84-6.9,38.07,38.07,0,0,0-17.47-1.29,38.53,38.53,0,0,0-28.1,20.57,38.11,38.11,0,0,0-4.24,17.55,39.5,39.5,0,0,0,.38,5.18A38.15,38.15,0,0,0,241,360.23a39.39,39.39,0,0,0,7.38,5.09,38.41,38.41,0,0,0,56.15-30.23A36,36,0,0,0,304.5,328.44Zm-11.67-15.77.22.3.2.3q.17.23.3.45l.41.64a.18.18,0,0,0,.05.07,8.15,8.15,0,0,1,.44.75l.18.32.26.47a.75.75,0,0,1,.07.12l.21.42c.13.24.25.49.36.73a1.17,1.17,0,0,1,.05.11l.06.12a.34.34,0,0,1,.06.12,2,2,0,0,1,.1.21c.08.17.15.33.22.5s.24.54.35.82c.05.11.09.22.13.33a1.59,1.59,0,0,1,.07.2l0,.07h0s0,0,0,0a3,3,0,0,1,.15.38.88.88,0,0,1,.05.15c.06.14.11.29.16.43a.44.44,0,0,1,.06.16c0,.05,0,.1.05.16a9.24,9.24,0,0,1,.29.89l.06.2c.08.23.14.46.2.7l.15.58a1.24,1.24,0,0,0,0,.16.33.33,0,0,1,0,.17c.07.23.12.47.17.71,0,.07,0,.14,0,.21l0,.17c0,.17.07.34.1.51.11.59.2,1.19.28,1.78.11.85.19,1.71.23,2.56a32.56,32.56,0,0,1-.1,5.13q-.09.81-.21,1.62c-.09.53-.18,1.07-.3,1.61-.16.77-.35,1.52-.57,2.27a32,32,0,0,1-3.58,8.15,34,34,0,0,1-2.82,3.95c-.21.25-.43.49-.65.74s-.45.47-.68.71c-.43.45-.87.9-1.33,1.32l-.07.07a32.07,32.07,0,0,1-5.44,4.08l-.13.07a31.48,31.48,0,0,1-13.67,4.41,33.85,33.85,0,0,1-9-.41,23.76,23.76,0,0,1-2.59-.62,43,43,0,0,1-4.26-1.53,31.32,31.32,0,0,1-3.79-1.92c-1.09-.66-2.16-1.35-3.18-2.11h0l-.75-.57c-.31-.25-.62-.51-.91-.77a21,21,0,0,1-2.49-2.59,27.34,27.34,0,0,1-5-7.18,29.3,29.3,0,0,1-2-4.87,26.2,26.2,0,0,1-.81-3.31,41.15,41.15,0,0,1-.73-6,5,5,0,0,1,0-.55,19.21,19.21,0,0,1,.08-2.27.17.17,0,0,1,0-.07.68.68,0,0,1,0-.14c.11-.95.41-1.91.48-2.82a18.25,18.25,0,0,1,.54-3.07l.09-.32c0-.17.09-.34.14-.51a1,1,0,0,1,0-.14l.31-1c.23-.67.47-1.34.74-2a1.12,1.12,0,0,1,.05-.13c.17-.4.34-.79.52-1.18s.3-.65.46-1,.33-.63.49-.94.34-.62.52-.93l.21-.35.35-.55c.2-.3.39-.6.59-.89l.38-.54a33.24,33.24,0,0,1,3.77-4.4c.5-.5,1-1,1.55-1.46.19-.17.38-.34.58-.5l0,0,.1-.08.18-.15a23.92,23.92,0,0,1,4.3-3c.86-.46,1.72-.88,2.6-1.26l1-.41a33.47,33.47,0,0,1,11.42-2.43,32.68,32.68,0,0,1,8.27.75h.05a27.74,27.74,0,0,1,2.83.82l1.8.61h0l.83.28a.69.69,0,0,1,.23.16h0c.08.07.15.16.23.23.34.1.67.21,1,.32h.11a14.66,14.66,0,0,1,1.75.93h0l.11.07.12.07,0,0h0l0,0h0l.18.12h0l.18.11c.59.36,1.16.73,1.72,1.12l.61.42c.5.36,1,.73,1.47,1.12l.21.17.6.51.27.24c.34.31.67.62,1,.95a36.68,36.68,0,0,1,3.84,4.45l0,0h0A.35.35,0,0,1,292.83,312.67Z"/><path class="cls-10" d="M285.56,336.39a7.35,7.35,0,0,0-1.59-3.73,9.44,9.44,0,0,0-5.94-3.52c-.46-.06-1.1.13-1.22-.44s.51-.63.87-.85A8.85,8.85,0,0,0,281,317.32a9.12,9.12,0,0,0-7.37-5.43,9.38,9.38,0,0,0-1.58-.1c-.82,0-1.35-.12-1.66-.57a2.22,2.22,0,0,1-.3-1c-.09-1.21-.41-2.41-.51-3.62,0-.05,0-.1,0-.14-.11-1-.58-1.15-1.51-.93s-1.72.27-2.58.41c-1.23.19-1.47.5-1.17,1.66a1.36,1.36,0,0,0,0,.17c.26,1,.25,2,.41,2.94.27,1.65-.59,1.83-1.83,2-.91.12-1.26-.11-1.35-1-.11-1.13-.3-2.25-.51-3.37,0-.08,0-.16,0-.24-.16-.92-.56-1.5-1.68-1.21a22.65,22.65,0,0,1-3,.46c-.72.08-1,.38-.84,1.11.06.34.11.67.16,1,.15,1,.28,2,.48,3s0,1.33-1,1.45c-2.25.27-4.48.66-6.72,1-3.2.48-3.2.48-2.7,3.74.3,2,.3,2,2.36,1.86,1.13-.1,1.78,0,2.19.54a3.56,3.56,0,0,1,.56,1.68q1.2,7.8,2.39,15.62l1,6.33c.22,1.48-.25,2.09-1.55,2.76-.76.4-2-.06-2.27.88a7.27,7.27,0,0,0,.29,2.69c0,.31.12.61.13.91,0,1,.47,1.21,1.42,1.05,2.75-.48,5.52-.79,8.26-1.31,1.34-.25,1.82.18,1.9,1.47s.37,2.32.5,3.49c.09.8.44,1,1.21.87,1.11-.22,2.24-.35,3.36-.52.21-.4.63-.32,1-.41-.24-1.63-.46-3.26-.74-4.88-.13-.74,0-1.09.84-1.24,2.23-.39,2.21-.43,2.45,1.79.12,1,.31,2.05.46,3.08a1.24,1.24,0,0,0,1.72.81,18.74,18.74,0,0,1,2.8-.43c.87-.08,1-.47.92-1.28a6.71,6.71,0,0,1-.24-3.05c.11-.8-.86-1.6-.25-2.26a4.89,4.89,0,0,1,2.08-.92c1-.3,1.73-1.15,2.79-1.27,0-.13,0-.31.08-.37a13.12,13.12,0,0,0,4.26-5.81A22.47,22.47,0,0,0,285.56,336.39Zm-13.14-14.83c.41,2.4-.37,4.12-2.21,5-2.6,1.27-5.47,1.29-8.23,1.8-.59.11-.74-.27-.81-.75-.17-1.2-.36-2.4-.54-3.6s-.36-2.41-.55-3.61c-.1-.62.09-1,.75-1.11,2.71-.27,5.34-1.18,8.12-.79C271,318.79,272.1,319.69,272.42,321.56Zm.55,21.3a19.11,19.11,0,0,1-8.17,1.74c-.81,0-1.13-.49-1.23-1.23-.19-1.38-.41-2.75-.62-4.13-.14-.86-.25-1.72-.39-2.58-.07-.47-.14-1-.23-1.42-.13-.72,0-1.15.82-1.24a66.86,66.86,0,0,1,7.36-.86,5.34,5.34,0,0,1,3.76,1.38,4.47,4.47,0,0,1,1.23,2.14C276.22,339.32,275.3,341.76,273,342.86Z"/><path class="cls-11" d="M298.41,326.53a32.57,32.57,0,0,1-52.23,30.58,32.57,32.57,0,0,0,36.38-53.84A32.46,32.46,0,0,1,298.41,326.53Z"/><path class="cls-2" d="M578.28,365.24c-3.6,2-7.3,3.89-11.07,5.76a392.26,392.26,0,0,1-46.41,19.33C475.58,406,422.85,416,366.11,418.6c-71.73-14.54-82.79-23.87-155.63-16.42q-5.89.6-11.48,1.4-5.67-1.35-11.22-2.81a440.51,440.51,0,0,1-67.49-23.47l-2-.89q-4.14-1.87-8.17-3.84a52.85,52.85,0,0,0,7.27-8.54c.37-.54.55-.84.55-.84a27.7,27.7,0,0,1-3-10.64,16.55,16.55,0,0,1,.1-2.81h0a12.09,12.09,0,0,1,2.35-6c3.87-5.08,13.09-8.41,33-5.47,13.52,2,26.93,5.48,39.87,9.15,18.11,5.12,35.31,10.59,50.62,12.8a92.62,92.62,0,0,0,12.13,1h.24c1.44,0,2.85,0,4.24-.11h0c7.63-.44,14.57-2.31,20.65-6.24,4.44-2.86,8.28-5.76,11.8-8.55,2.65-2.11,5.11-4.14,7.49-6l0,0c2.35-1.87,4.61-3.62,6.91-5.17,6.6-4.48,13.41-7.35,22.92-7.08a53.25,53.25,0,0,1,8.86,1c6.74,1.31,14.72,3.91,24.45,8.13q4.46,1.94,8.8,3.76c45.33,19.11,81,29.15,103.64,10.87a90.86,90.86,0,0,1,12.19-8.33c13.16-7.49,28.07-11.25,43.32-8.42,1.59.3,3.18.66,4.77,1.11a62.93,62.93,0,0,1,18,8.27,79.39,79.39,0,0,1,8,6.08l1.38,1.21A204.64,204.64,0,0,0,578.28,365.24Z"/><path class="cls-5" d="M122.79,366.89a22.75,22.75,0,0,1-2.5,10.41l-2-.89q-4.14-1.87-8.17-3.84t-8-4q-4-2.08-8-4.26-5.34-3-10.43-6l-2.16-1.32-1.8-1.12a22.94,22.94,0,0,1,35.32-6.09h0a22.83,22.83,0,0,1,7.7,16.28C122.78,366.31,122.79,366.6,122.79,366.89Z"/><path class="cls-6" d="M120.62,365.18A21.56,21.56,0,0,0,115,352.55a20.93,20.93,0,0,0-33.42,4.39l2.16,1.32q5.08,3.08,10.43,6c.3-1.68.64-3.36,1-5,.19-1,.37-1.93.53-2.9a1.47,1.47,0,0,1,1.74-1.46c1.93,0,3.86,0,6,0-.34,1.85-.66,3.62-1,5.4l-.91,5.07,3.08-.81c.42,2-.12,3-1.79,3.7l-.69.29q4,2.06,8,4t8.17,3.84a22.66,22.66,0,0,0,2.4-9.6C120.71,366.26,120.68,365.72,120.62,365.18Z"/><path class="cls-5" d="M102.8,368.26l-.69.29q-4-2.08-8-4.26c.3-1.68.64-3.36,1-5,.19-1,.37-1.93.53-2.9a1.47,1.47,0,0,1,1.74-1.46c1.93,0,3.86,0,6,0-.34,1.85-.66,3.62-1,5.4l-.91,5.07,3.08-.81C105,366.59,104.47,367.58,102.8,368.26Z"/><polyline class="cls-12" points="603.29 239 314.29 239 431.29 116 625.29 116 644.29 116 674.29 116 698.29 116 713.29 116 727.29 116 602.29 239"/><line class="cls-13" x1="339.95" y1="239" x2="456.95" y2="116"/><line class="cls-13" x1="372.66" y1="239" x2="489.66" y2="116"/><line class="cls-13" x1="407.06" y1="239" x2="524.06" y2="116"/><line class="cls-13" x1="439.77" y1="239" x2="556.77" y2="116"/><line class="cls-13" x1="471.29" y1="239" x2="588.29" y2="116"/><line class="cls-13" x1="504" y1="239" x2="621" y2="116"/><line class="cls-13" x1="538.39" y1="239" x2="655.39" y2="116"/><line class="cls-13" x1="571.1" y1="239" x2="688.1" y2="116"/><path class="cls-14" d="M495.29,30.66v15s5.66-2,8.33-5.66,5-1.84,5-1.84L520,41l-7.33,6.66S528.29,58,528,65.33l-13.33,9.33,6,34.34s.67,1.33-35,5l-8,60.33-74.33-2L477,53l-63.33,4.66,1-20.33L488,35V30.66Z"/><polygon class="cls-15" points="500.95 68.66 500.95 69.66 500.95 91 489.95 93.33 500.95 68.66"/><path class="cls-16" d="M512.29,38.47l-1.5-7.1s-4,1.5-7,0l-1.38,7.1Z"/><path class="cls-17" d="M495.29,30.66l14.86,7.89S497.62,48,493.62,46Z"/><path class="cls-18" d="M501.88,17.37S493.8,29.08,503.67,32s14-7.3,14-7.3Z"/><path class="cls-17" d="M490,53,442.59,173.39S449,111,490,53Z"/><polygon class="cls-19" points="495.45 10.74 495.45 14.49 526.79 29 529.16 25.75 524.66 23.87 524.54 7.87 510.15 2 500.95 11.62 495.45 10.74"/><path class="cls-20" d="M416.52,37.27a6.7,6.7,0,0,1-2.11,4.4,11.63,11.63,0,0,1-6.49,2.89,25,25,0,0,1-3.22.27s-1.85,2.19-4.08,1.89a2.4,2.4,0,0,1-2.13-1.78h0c-1-2.32-1.25-6.49-.23-8.48a1.75,1.75,0,0,1,1.53-1.12C403,35.33,414.17,36.13,416.52,37.27Z"/><path class="cls-21" d="M456.85,99l-6.18,1.63-3.73,1-7,1.84-1.15-1L434.62,99l.49-3,2.05-12.64q-7.76-9-15.29-16.72c-7.31-7.49-14.43-14.09-21.25-19.89-.71-.61-1.42-1.2-2.13-1.78h0c-38-31.7-66.26-38.6-66.26-38.6"/><circle class="cls-22" cx="445.66" cy="107.5" r="8.5"/><path class="cls-23" d="M496.79,165s-.48-1.05-1.44-3c-1.12-2.28-2.89-5.79-5.28-10.26-.48-.9-1-1.83-1.52-2.8-1.6-2.94-3.43-6.21-5.49-9.76l-.63-1.09h0q-2.46-4.22-5.33-8.88c-2.56-4.18-5.37-8.61-8.41-13.2l-.94-1.41-1.28-1.91-1.21-1.79c-1.27-1.85-2.57-3.73-3.9-5.62l-1.24-1.74-1.18-1.65c-.69-.95-1.38-1.92-2.09-2.88-1.47-2-3-4-4.54-6.08l-.1-.13C446,84.58,439.1,76.22,431.66,68q-5-5.55-10.4-10.94-3.56-3.57-7.27-7-3-2.8-6.07-5.51c-3.14-2.78-6.37-5.48-9.66-8.11C378.85,21,356.92,8.42,332.79,2l-8.71,46.34"/><polyline class="cls-23" points="321.69 61.07 312.81 108.29 311.07 117.59 308.97 128.74 308.02 133.82 306.8 140.32 303 160.52 302.26 164.48 302.25 164.48 298.31 185.45 295.58 200 295.53 200.28 292.93 214.12 291.79 220.16 290.77 225.61 287.26 244.3 287.25 244.3 285.27 254.86 284.66 258.1 280.76 278.84 278.29 292 278.1 292.8 277.64 294.79 276.54 299.53 276.32 300.46 276.31 300.51 275.23 305.16 274.24 309.43 273.67 311.89 272.48 317"/><path class="cls-24" d="M475.94,174.29l2.85,4.2h-2.85s14.18,37,14,46.5H466.27s8.85-2.66,6.68-10.33L459.12,182l-6.5-.33v-8.27Z"/><path class="cls-24" d="M425.45,172.93l1.67,3.61-6.5,1.78-27.33,48.34h-23.5s2.66-6.84,12.33-6.67c0,0,6.17-6.33,7.17-9s12.16-28.5,12.16-28.5l-5.33-.33,9.5-9.77Z"/><path class="cls-20" d="M471,95.25v14s-5.5,1-7.25,2.5-7.5-2.5-3.75-15C460,96.75,469.27,93.88,471,95.25Z"/><polyline class="cls-12" points="602.29 239 753.17 239 753.17 116 727.29 116"/><path class="cls-12" d="M753.18,116h0Z"/><line class="cls-13" x1="603.32" y1="239" x2="720.32" y2="116"/><line class="cls-13" x1="637.72" y1="239" x2="754.72" y2="116"/><line class="cls-13" x1="753.18" y1="152" x2="670.43" y2="239"/><line class="cls-25" x1="753.18" y1="193.62" x2="713.03" y2="235.83"/><rect class="cls-26" x="314.29" y="239" width="438.88" height="12.28"/></g></g></g></svg>