<svg xmlns="http://www.w3.org/2000/svg" xmlns:xlink="http://www.w3.org/1999/xlink" viewBox="0 0 116.17 115.67"><defs><style>.cls-1,.cls-6{fill:#edc566;}.cls-1,.cls-2,.cls-3{fill-rule:evenodd;}.cls-2{fill:#ffeb7a;}.cls-3{fill:#ffed7c;}.cls-4{fill:url(#linear-gradient);}.cls-5{fill:#717175;}.cls-6{font-size:17.82px;font-family:CooperBlack, Cooper Black;}.cls-7{letter-spacing:-0.04em;}.cls-8{letter-spacing:-0.02em;}.cls-9{letter-spacing:-0.01em;}.cls-10{letter-spacing:-0.01em;}</style><linearGradient id="linear-gradient" x1="852.78" y1="1752.81" x2="912.69" y2="1752.81" gradientTransform="matrix(-0.47, 0.79, -0.6, -0.62, 1542.34, 438.2)" gradientUnits="userSpaceOnUse"><stop offset="0" stop-color="#fff" stop-opacity="0.6"/><stop offset="1" stop-color="#fff" stop-opacity="0"/></linearGradient></defs><title>logo-main</title><g id="Layer_2" data-name="Layer 2"><g id="Capa_1" data-name="Capa 1"><path class="cls-1" d="M108.62,47.09a39.95,39.95,0,1,1-40-39.92A39.95,39.95,0,0,1,108.62,47.09Z"/><path class="cls-1" d="M104.59,43.38a39.95,39.95,0,1,1-40-39.92A39.94,39.94,0,0,1,104.59,43.38Z"/><path class="cls-2" d="M115.75,47.19c.22,25.65-21.09,47-46.93,47A47.35,47.35,0,0,1,21.59,46.64,47.39,47.39,0,0,1,68.31,0C94.38-.21,116.07,21.26,115.75,47.19ZM90.19,13.64c-.17-.2-.3-.48-.52-.59a71,71,0,0,0-6.39-3.11A39.39,39.39,0,0,0,73.37,7.5,41.5,41.5,0,0,0,54.45,9.72a36.48,36.48,0,0,0-9.14,5.06A39.48,39.48,0,0,0,32.17,30.94a21.69,21.69,0,0,0-1.3,3.84C30.59,36,30,37.15,29.7,38.36a38.88,38.88,0,0,0-.82,10.76,36.42,36.42,0,0,0,1.89,10.44,33.63,33.63,0,0,0,4.76,9.62,32.61,32.61,0,0,0,7.78,8.68,43.21,43.21,0,0,0,9.13,5.67A40.16,40.16,0,0,0,83.85,84a40.37,40.37,0,0,0,9.66-5.63,39,39,0,0,0,5.67-5.53A39.68,39.68,0,0,0,106.12,61a40.37,40.37,0,0,0,2.41-16.49,39.24,39.24,0,0,0-2.18-10.69A40.2,40.2,0,0,0,100.47,23a39.14,39.14,0,0,0-6.29-6.57A15.47,15.47,0,0,0,90.19,13.64Z"/><path class="cls-3" d="M90.5,61.86a16.09,16.09,0,0,1-6.23,6.26c-.1,0-.11.29-.16.43-1.31,0-2.36.85-3.62,1a5.81,5.81,0,0,0-2.69.73c-.86.68.17,1.84-.11,2.78-.59,1.21-.27,2.5-.28,3.74,0,1-.27,1.46-1.34,1.39a23.77,23.77,0,0,0-3.48,0c-1.07.1-1.71-.23-1.94-1.3,0-1.27,0-2.55,0-3.82.1-2.73.12-2.69-2.65-2.62-1,0-1.27.42-1.25,1.34,0,2,0,4,0,6.06-.44,0-.93-.13-1.26.32-1.39,0-2.78,0-4.17,0-1,0-1.34-.3-1.3-1.28.06-1.44-.08-2.9,0-4.33S59.72,70.45,58,70.5c-3.41.12-6.83,0-10.25.07-1.19,0-1.7-.33-1.54-1.54a8.36,8.36,0,0,0,0-1.12c0-1.12-.27-2.38.15-3.32.49-1.09,1.92-.31,2.92-.65,1.7-.57,2.37-1.23,2.38-3.06q0-13.62,0-27.24c0-2.44-.61-3-2.93-3.2-2.53-.17-2.53-.17-2.53-2.68,0-4.05,0-4.05,4-4,2.78,0,5.56-.06,8.33,0,1.24,0,1.58-.4,1.52-1.57-.09-1.65,0-3.31,0-5,0-.91.33-1.23,1.22-1.19a26.72,26.72,0,0,0,3.69,0c1.41-.13,1.79.64,1.82,1.78,0,1.5.07,3,0,4.49-.06,1.11.33,1.45,1.45,1.48,1.54,0,2.61,0,2.59-2.06,0-1.21.18-2.43,0-3.65-.2-1.65.11-2,1.71-2,1.06,0,2.14.07,3.2,0,1.22-.1,1.76.25,1.65,1.59s.07,3,0,4.48.53,2.12,2.07,2.32c4.34.55,8.78,3.65,9.85,8.34a10.84,10.84,0,0,1-6,12.15c-.48.21-1.24.3-1.22.87s.85.61,1.4.77c4.21,1.21,8,5.68,7.79,10.16A26.37,26.37,0,0,1,90.5,61.86ZM63.27,56c0,1.71,0,3.42,0,5.12,0,.92.27,1.58,1.27,1.73a23.36,23.36,0,0,0,10.22-.62c3-.91,4.59-3.69,4.21-7.05-.32-2.84-2.39-4.72-5.4-5.19s-6.07-.17-9.09-.3c-1.05-.05-1.25.45-1.23,1.35C63.3,52.67,63.27,54.33,63.27,56Zm0-18.89v4.48c0,.59.1,1.08.84,1,3.44-.1,6.92.39,10.3-.67,2.4-.74,3.66-2.68,3.61-5.66C78,34,76.8,32.66,74.37,31.94c-3.31-1-6.67-.36-10-.53-.82,0-1.12.44-1.12,1.21C63.26,34.11,63.26,35.6,63.26,37.09Z"/><rect class="cls-4" x="61.96" y="15.86" width="14.18" height="61.69" transform="translate(-14.09 52.75) rotate(-38.24)"/><polygon class="cls-5" points="27.39 65.22 1.05 80.77 6.08 89.89 32.72 74.63 27.39 65.22"/><polygon class="cls-5" points="37.29 62.79 25.29 69.88 27.58 74.04 39.72 67.08 37.29 62.79"/><path class="cls-5" d="M28,64.87a1.67,1.67,0,0,1,2.27.6L34,72.13a1.65,1.65,0,0,1-.69,2.24l-.68.37a1.66,1.66,0,0,1-2.27-.6l-3.67-6.65a1.65,1.65,0,0,1,.69-2.24Z"/><path class="cls-5" d="M1.58,80.39A1.64,1.64,0,0,1,3.83,81l3.58,6.47a1.66,1.66,0,0,1-.71,2.21L6,90a1.63,1.63,0,0,1-2.24-.56L.19,83a1.63,1.63,0,0,1,.71-2.2Z"/><path class="cls-5" d="M33.42,38.79A36.33,36.33,0,1,0,77.06,11.68,36.32,36.32,0,0,0,33.42,38.79Zm8,1.87a28.11,28.11,0,1,1,21,33.77A28.11,28.11,0,0,1,41.42,40.66Z"/><text class="cls-6" transform="translate(21.01 111.2)">Coi<tspan class="cls-7" x="29.9" y="0">n</tspan><tspan class="cls-8" x="41.16" y="0">T</tspan><tspan class="cls-9" x="53.37" y="0">r</tspan><tspan x="62.72" y="0">a</tspan><tspan class="cls-10" x="72.82" y="0">c</tspan><tspan x="82.08" y="0">k</tspan></text></g></g></svg>